<svg width="1200" height="700" viewBox="0 0 1200 700" fill="none" xmlns="http://www.w3.org/2000/svg">
  <defs>
    <linearGradient id="i1" x1="0" y1="0" x2="1" y2="1">
      <stop stop-color="#F7FCFF"/>
      <stop offset="1" stop-color="#A8CFFF"/>
    </linearGradient>
    <linearGradient id="i2" x1="0" y1="0" x2="1" y2="1">
      <stop stop-color="#8DD6FF"/>
      <stop offset="1" stop-color="#315EE0"/>
    </linearGradient>
  </defs>

  <g transform="translate(190 118)">
    <rect x="40" y="190" width="188" height="302" rx="18" fill="url(#i1)"/>
    <rect x="280" y="108" width="216" height="384" rx="18" fill="url(#i1)"/>
    <rect x="548" y="154" width="192" height="338" rx="18" fill="url(#i1)"/>

    <g fill="#3B5FC6">
      <rect x="74" y="230" width="120" height="14" rx="7"/>
      <rect x="74" y="260" width="120" height="14" rx="7"/>
      <rect x="74" y="290" width="120" height="14" rx="7"/>

      <rect x="316" y="152" width="144" height="14" rx="7"/>
      <rect x="316" y="182" width="144" height="14" rx="7"/>
      <rect x="316" y="212" width="144" height="14" rx="7"/>

      <rect x="582" y="194" width="124" height="14" rx="7"/>
      <rect x="582" y="224" width="124" height="14" rx="7"/>
      <rect x="582" y="254" width="124" height="14" rx="7"/>
    </g>

    <ellipse cx="390" cy="528" rx="370" ry="28" fill="url(#i2)" fill-opacity="0.36"/>
  </g>
</svg>
