<svg width="1200" height="700" viewBox="0 0 1200 700" fill="none" xmlns="http://www.w3.org/2000/svg">
  <defs>
    <linearGradient id="s1" x1="0" y1="0" x2="1" y2="1">
      <stop stop-color="#F8FCFF"/>
      <stop offset="1" stop-color="#AED3FF"/>
    </linearGradient>
    <linearGradient id="s2" x1="0" y1="0" x2="1" y2="1">
      <stop stop-color="#7FDBFF"/>
      <stop offset="1" stop-color="#2D66E9"/>
    </linearGradient>
    <linearGradient id="s3" x1="0" y1="0" x2="1" y2="1">
      <stop stop-color="#8EA7FF"/>
      <stop offset="1" stop-color="#374EA5"/>
    </linearGradient>
  </defs>

  <g transform="translate(170 88)">
    <polygon points="420,42 760,228 420,414 80,228" fill="url(#s1)"/>
    <polygon points="420,414 760,228 760,418 420,604" fill="url(#s2)"/>
    <polygon points="420,414 80,228 80,418 420,604" fill="url(#s3)"/>

    <rect x="272" y="196" width="296" height="28" rx="14" fill="#3655BE"/>
    <rect x="242" y="244" width="356" height="28" rx="14" fill="#4A73E5"/>
    <rect x="286" y="292" width="268" height="28" rx="14" fill="#6E9BFF"/>
  </g>

  <circle cx="1010" cy="144" r="78" fill="#8FE0FF" fill-opacity="0.55"/>
  <circle cx="190" cy="578" r="66" fill="#8EA8FF" fill-opacity="0.45"/>
</svg>
